<?xml version="1.0" encoding="UTF-8" standalone="no"?>
<svg
   xmlns:dc="http://purl.org/dc/elements/1.1/"
   xmlns:cc="http://creativecommons.org/ns#"
   xmlns:rdf="http://www.w3.org/1999/02/22-rdf-syntax-ns#"
   xmlns:svg="http://www.w3.org/2000/svg"
   xmlns="http://www.w3.org/2000/svg"
   xmlns:sodipodi="http://sodipodi.sourceforge.net/DTD/sodipodi-0.dtd"
   xmlns:inkscape="http://www.inkscape.org/namespaces/inkscape"
   width="1600.00"
   height="1200.00"
   viewBox="0.00 0.00 1600.00 1200.00"
   version="1.1"
   id="svg851"
   sodipodi:docname="cc-logo-v002.svg"
   inkscape:version="1.0.2-2 (e86c870879, 2021-01-15)">
  <metadata
     id="metadata857">
    <rdf:RDF>
      <cc:Work
         rdf:about="">
        <dc:format>image/svg+xml</dc:format>
        <dc:type
           rdf:resource="http://purl.org/dc/dcmitype/StillImage" />
        <dc:title></dc:title>
      </cc:Work>
    </rdf:RDF>
  </metadata>
  <defs
     id="defs855" />
  <sodipodi:namedview
     pagecolor="#ffffff"
     bordercolor="#666666"
     borderopacity="1"
     objecttolerance="10"
     gridtolerance="10"
     guidetolerance="10"
     inkscape:pageopacity="0"
     inkscape:pageshadow="2"
     inkscape:window-width="1920"
     inkscape:window-height="991"
     id="namedview853"
     showgrid="false"
     inkscape:zoom="0.529375"
     inkscape:cx="766.12893"
     inkscape:cy="600"
     inkscape:window-x="1911"
     inkscape:window-y="-9"
     inkscape:window-maximized="1"
     inkscape:current-layer="svg851" />
  <path
     d="m 913.19,452.84 c -0.31,-1.3 -5.99,-27.3 -6.1,-27.88 -0.69,-3.8 0.07,-10.79 1.5,-13.86 0.12,-0.24 4.78,-9.28 5.87,-12.4 0.97,-2.82 2.48,-10.31 2.55,-13.13 0.02,-1.74 -0.59,-4.32 -1.32,-5.27 -0.74,-0.9 -3.17,-2.18 -4.84,-2.65 -1.56,-0.37 -4.15,0.34 -5.85,1.62 -0.18,0.14 -3.36,3.2 -4.87,4.43 -2.41,1.94 -7.63,3.88 -11.92,4.78 -7.66,1.54 -24.15,1.8 -29.39,1.29 -6.37,-0.66 -20.02,-4.67 -27.87,-7.88 -7.6,-3.13 -21.31,-7.1 -28.92,-8.45 -7.05,-1.23 -21.14,-2.6 -31.18,-2.94 -8.67,-0.16 -23.54,0.4 -31.16,0.85 -8.15,0.67 -24.59,2.22 -32.71,3.26 -7.94,1.2 -21.65,3.67 -31.4,6.19 -7.75,2.12 -23.69,7.4 -29.92,9.9 -7.14,2.88 -21.67,9.85 -27.17,13.13 -7.2,4.37 -18.65,12.32 -24.51,17 -5.84,4.71 -16.52,14.52 -22.83,21.01 -3.18,3.3 -14.85,17.42 -19.64,23.67 -4.77,6.5 -13.96,19.81 -18.17,26.28 -3.94,6.33 -10.97,18.29 -15.01,26.83 -3.51,7.45 -7.77,18.48 -11.25,28.67 -2.37,7.35 -5.86,19 -8.35,29.29 -1.64,7.4 -4.83,22.5 -6.25,30.25 -1.42,9.21 -3.14,24.88 -3.28,30.42 -0.15,8.85 0.4,22.36 1.26,31.14 0.91,7.74 3.97,26.86 4.87,30.94 0.83,3.71 5.98,22 8.37,29.43 3.11,8.99 8.26,22.04 11.56,29.01 3.36,6.94 11.18,20.25 15.59,26.72 2.96,4.33 14.08,18.81 18.87,24.63 7.41,8.59 14.1,15.53 21.05,21.7 5.74,5.07 17.88,14.32 24.4,18.99 10.59,7.27 16.21,10.81 26.24,16.62 6.54,3.64 23.65,12.96 27.2,14.68 7.3,3.51 22.86,9.38 31.21,11.75 5.88,1.66 22.37,4.89 30.05,5.98 7.83,0.93 24.05,2.2 32.17,2.5 8,0.13 23.4,-0.38 30.73,-1.13 8.78,-0.99 24.55,-4.08 32.64,-6.47 8.63,-2.56 47.15,-18.93 57.03,-23.97 5,-2.61 21.64,-12.34 23.46,-13.24 2.87,-1.4 8.66,-2.6 11.7,-2.48 2.91,0.16 12.03,2.67 14.28,3.69 3.73,1.76 11.64,9.46 12.06,9.75 1.29,0.86 4.37,1.59 5.39,1.29 0.91,-0.32 2.55,-2.34 2.82,-3.34 0.68,-2.78 -0.92,-50.34 -0.74,-51.19 0.61,-2.63 7.95,-19.12 11.18,-26.24 1.63,-3.47 3.54,-8.38 2.83,-11.03 -0.32,-1.1 -2.2,-3.31 -3.29,-4.09 -1.39,-0.88 -4.17,-1.36 -6.32,-1.01 -2.09,0.39 -5.05,1.76 -6.55,3.01 -5.01,4.57 -15.17,13.45 -20.32,17.74 -6.3,5.17 -19.54,14.18 -27.21,18.65 -6.42,3.57 -23.41,12.27 -27.88,14.29 -7.54,3.38 -23.67,9.29 -30.8,11.24 -7.78,2.1 -22.28,4.99 -31.38,6.25 -8,0.96 -23.46,2.4 -30.93,2.88 -4.63,0.25 -25.21,-0.05 -31.32,-0.44 -8.66,-0.69 -21.95,-2.62 -29.37,-4.27 -6.35,-1.43 -22.05,-6.83 -29.3,-10 -7.22,-3.16 -21.98,-11 -27.03,-14.34 -5.6,-3.73 -17.2,-13.33 -24.07,-19.88 -5.45,-5.27 -16.22,-15.78 -21.11,-21.09 -4.84,-5.38 -15.45,-17.31 -18.84,-22.09 -4.73,-6.72 -10.78,-18.29 -13.92,-26.11 -2.71,-6.79 -7.63,-22.15 -9.51,-30.04 -1.88,-7.94 -4.07,-21.46 -5.1,-32.07 -0.54,-7.73 -1.05,-23.75 -1.02,-32 0.21,-8.04 1.16,-23.33 1.91,-30.58 0.81,-7.08 4.66,-24.55 7.03,-31.98 1.13,-3.54 7.55,-21.07 10.05,-27.47 1.47,-3.71 11.04,-23.03 13.08,-26.54 3.59,-6.17 12.97,-18.69 18.58,-24.82 4.93,-5.19 18.61,-18.61 22.16,-21.81 6.18,-5.53 19.87,-15.92 25.85,-19.62 5.98,-3.68 20.96,-10.99 28.29,-13.8 4.47,-1.7 22.15,-7.31 29.43,-9.27 7.42,-1.83 23.42,-4.59 31.45,-5.39 5.24,-0.51 24.61,-1.3 30.96,-1.14 8.38,0.28 23.93,2.22 31.67,3.9 7.57,1.66 23.19,6.48 29.54,9.21 7.58,3.29 18.34,9.06 27.93,14.69 14.16,8.7 34.36,24.77 37.14,27.64 4.23,4.35 8.11,7.46 10.68,7.22 1.39,-0.17 4.56,-2.68 5.82,-4.32 1.23,-1.69 3.33,-8.23 3.6,-11.44 0.41,-5.5 -1.65,-13.24 -2.13,-15.25 z"
     fill="none"
     stroke="#000000"
     stroke-width="3"
     stroke-opacity="1"
     stroke-linejoin="miter"
     id="path846"
     style="stroke-linecap:round;fill:#095852;fill-opacity:1;stroke:none" />
  <path
     d="m 934.45,369.89 c 0.99,-0.43 3.38,-2.6 4.14,-3.73 0.95,-1.47 1.56,-4.24 1.41,-6.16 -0.33,-3.3 -7.79,-17.65 -12.02,-27.49 -4.5,-10.86 -8.9,-22.53 -10.58,-30.12 -1.76,-8.13 -2.15,-20.38 -1.21,-30.52 1.61,-14.66 5.34,-30.99 5.57,-32.02 -4.67,3.61 -19.03,14.74 -23.74,17.74 -3.64,2.3 -11.19,6.24 -14.93,7.69 -3.85,1.46 -11.43,3.5 -15.24,4.09 -7.19,1.08 -22.95,1.12 -30.29,-0.16 -7.56,-1.36 -23.26,-7.09 -29.3,-10.53 -5.97,-3.45 -19.09,-14.18 -23.68,-19.67 -2.59,-3.14 -6.17,-8.7 -7.94,-12.29 -4.3,-8.86 -10.4,-33.84 -14.92,-55.97 -13.41,18.95 -22.83,30.45 -28.26,35.05 -3.02,2.54 -8.99,6.33 -12.54,8.05 -6.5,3.12 -22.08,7.39 -29.96,8.57 -4.02,0.58 -12.58,1.19 -15.71,1.11 -6.98,-0.2 -22.03,-3.54 -28.83,-6.31 -6.56,-2.71 -18.4,-10.47 -23.98,-15.53 -5.79,-5.29 -15.04,-16.36 -19.9,-23.68 -14.35,-22.29 -19.2,-28.84 -23.91,-34.89 -0.96,6.86 -2.92,20.03 -4.62,29.16 -2.21,11.38 -5.26,23.61 -7.82,29.92 -2.97,7.21 -11.8,20.36 -16.83,25.53 -5.4,5.5 -19.1,16.14 -24.55,18.97 -3.37,1.73 -9.52,4.1 -12.83,4.97 -6.5,1.65 -20.48,1.94 -29.45,1.08 -6.38,-0.63 -22.52,-4.5 -28.55,-7.28 -6.3,-2.94 -18.45,-11.95 -24.77,-18.34 -5.4,-5.57 -15.68,-17.21 -19.8,-21.88 6.85,24.18 10.08,38.32 10.19,44.17 0.08,5.83 -2.7,22.61 -4.42,29.08 -1,3.69 -3.76,11.39 -5.08,14.18 -1.59,3.31 -6.03,10.48 -8.49,13.68 -2.44,3.15 -7.83,8.89 -10.81,11.53 -5.48,4.79 -18.38,11.68 -26.98,14.94 -7.3,2.74 -22.94,6.23 -29.7,6.7 -7.08,0.46 -20.23,-1.5 -27.21,-3.91 -9.86,-3.44 -34.06,-16.39 -37.87,-18.43 3.67,5.29 13.44,19.36 17.21,25.72 4.09,6.95 9.94,21.36 11.43,27.99 0.83,3.78 1.51,10.04 1.42,13.87 -0.1,3.57 -1.2,10.65 -2.2,14.52 -1.84,6.97 -8.74,22.21 -12.48,28.64 -2.05,3.49 -6.97,10.56 -9.11,13.08 -4.7,5.5 -17.25,15.69 -23.65,19.28 -3.44,1.9 -9.65,4.54 -13.37,5.64 -5.7,1.64 -22.54,3.39 -30.08,3.46 -6.96,0.01 -22.7,-0.48 -27.22,-0.62 5.51,3.41 20.88,12.98 26.34,16.87 4.25,3.03 18.48,14.79 22.5,19.86 2.52,3.23 5.94,8.98 7.6,12.61 2.88,6.42 6.8,21.57 7.57,29.03 0.74,7.49 -0.71,22.1 -2.69,29.45 -1.99,7.26 -7.75,20.55 -11.66,26.65 -3.98,6.15 -13.39,16.91 -19.86,21.74 -11.35,8.39 -30.6,16.02 -56.06,25.56 6.49,2.11 23.94,7.86 29.44,10.21 7.79,3.37 21.55,12.24 26.45,16.63 5.99,5.4 15.57,16.72 18.89,22.87 3.51,6.57 8.95,20.22 10.34,27.93 1.14,6.5 1.07,22.31 0.04,29.45 -0.56,3.73 -2.32,10.88 -3.55,14.4 -1.25,3.5 -4.7,10.5 -6.8,13.83 -5.37,8.44 -24.52,29.31 -39.55,44.4 5.95,-1.14 21.94,-4.19 29.74,-5.06 7.44,-0.82 25.76,-0.93 31.93,-0.21 3.88,0.46 11.84,2.23 15.06,3.35 3.31,1.16 10.65,4.75 14.02,6.86 6.26,3.97 19.16,15.5 23.18,20.82 4.58,6.12 11.41,19.33 13.63,26.75 2.03,6.89 3.84,21.88 3.94,29.76 0.08,8.29 -2.29,23.74 -4.87,30.96 -2.92,8.08 -8.27,17.51 -15.41,29.05 -1.43,2.31 -3.39,5.5 -3.93,6.38 1.98,-1.13 6.98,-3.99 10,-5.72 3.93,-2.17 12.03,-5.31 17.13,-6.64 5.55,-1.41 22.29,-3.45 29.56,-3.56 3.93,-0.05 11.24,0.41 14.96,0.93 3.74,0.55 11.38,2.61 15.05,4.09 5.18,2.13 20.83,12.16 25.02,15.48 2.62,2.09 8.83,7.79 11.4,10.47 2.73,2.87 6.87,8.36 8.73,11.58 3.1,5.45 7.49,20.13 8.35,27.36 0.4,3.59 0.61,11.37 0.25,15.59 -0.67,7.6 -4.34,23.47 -5.73,29.5 4.88,-4.55 17.3,-16.05 24,-21 5.41,-3.97 19.13,-11.85 25.46,-14.52 7.04,-2.93 21.26,-6.02 29.03,-6.31 8.33,-0.26 22.38,2.08 29.2,4.18 3.73,1.17 10.59,4.09 13.98,5.95 5.89,3.27 18.17,13.46 22.81,18.85 2.5,2.92 7.17,9.62 8.93,12.78 4.12,7.52 7.82,18.91 11.73,32.71 0.39,1.37 1.09,3.85 1.41,4.95 11.52,-20.53 19.93,-33.14 25.11,-38.73 5.26,-5.62 17.93,-14.83 24.4,-17.8 6.89,-3.13 23.33,-7.46 30.12,-8.15 6.81,-0.66 23.26,0.41 30.51,2.16 6.77,1.67 21.25,8.4 27.11,12.77 5.97,4.5 15.81,15.43 22.16,24.03 2.02,2.72 5.43,7.33 6.83,9.22 1.23,-5.91 4.74,-22.82 6.46,-28.86 2.43,-8.42 8.3,-20.93 12.74,-27.16 4.39,-6.13 13.68,-15.36 21.06,-20.47 5.73,-3.95 22.34,-12.59 27.24,-14.21 4,-1.31 10.73,-2.59 14.97,-2.93 7.2,-0.54 23.53,0.79 29.64,2.56 4.92,1.45 17.66,8.23 25.39,12.75 2.86,1.69 8.13,5.07 12.01,8.82 1.04,0.99 1.75,1.49 2.13,1.51 0.92,-0.01 2.62,-2.94 2.93,-4.81 0.34,-2.3 -1.52,-9.83 -3.36,-12.33 -2.01,-2.41 -6.35,-7.98 -7.84,-11.04 -1.65,-3.42 -3.79,-11.34 -4.35,-14.35 -0.69,-3.87 -1.07,-10.79 -0.89,-14.69 0.37,-7.24 3.75,-21.08 6.92,-30.51 4.91,-13.86 10.11,-28.54 10.41,-29.37 -11.87,9.62 -41.19,33.14 -44.71,35.56 -6.86,4.68 -18.43,11.16 -27.69,15.9 -13.81,6.7 -45.03,20.59 -60.33,26.82 -5.12,2 -22.6,8.1 -30.08,10.61 -7.4,2.3 -22.17,6.52 -29.87,8.29 -7.84,1.63 -23.8,4.33 -31.47,5.17 -15.14,1.42 -44.21,2.2 -63.56,1.85 -7.57,-0.3 -22.47,-1.2 -30.76,-2.17 -8.43,-1.14 -24.43,-3.94 -32.02,-5.59 -7.39,-1.79 -22,-5.51 -29.21,-7.43 -6.75,-1.88 -42.65,-15.23 -56.37,-21.31 -11.24,-5.2 -16.26,-7.77 -25.87,-13.18 -5.96,-3.51 -18,-10.82 -24.07,-14.62 -5.34,-3.46 -19.34,-13.9 -26.16,-19.38 -9.88,-8.33 -18.13,-16.21 -23.21,-21.09 -10.57,-10.68 -35.66,-37.77 -44,-47.65 -5.27,-6.5 -15.28,-19.59 -20.01,-26.17 -6.81,-9.9 -11.21,-16.91 -17.13,-27.36 -3.82,-7.13 -10.9,-21.55 -14.16,-28.85 -3.07,-7.34 -8.67,-22.19 -11.21,-29.65 -2.37,-7.47 -6.61,-22.48 -8.47,-30 -2.56,-11.4 -3.89,-18.87 -5.39,-30.46 -0.83,-7.74 -1.99,-23.35 -2.31,-31.21 -0.28,-14.92 1.11,-47.49 2.61,-63.06 1.74,-15.43 7.71,-46.04 11.51,-61.26 2.02,-7.6 6.43,-22.76 8.88,-30.27 2.62,-7.44 8.38,-22.17 11.52,-29.44 5.02,-10.96 8.55,-17.77 14.69,-28.4 4.22,-6.96 13.21,-20.78 17.98,-27.64 7.45,-10.29 30.41,-38.95 40.15,-50.24 7.76,-8.63 12.37,-13.35 21.66,-22 5.97,-5.3 18.48,-15.59 23.42,-19.16 11.44,-8.04 39.13,-24.99 50.79,-30.91 12.74,-6.25 44.95,-21.01 55.27,-25.11 7.61,-2.78 23.2,-7.76 31.17,-9.95 11.7,-2.89 20.21,-4.57 31.62,-6.31 7.82,-1.02 23.83,-2.61 32.02,-3.18 16.18,-0.81 50.1,-0.5 65.64,0.54 7.61,0.64 22.82,2.33 31.31,3.74 8.71,1.63 27.13,5.86 33.52,7.66 8.79,2.62 42.34,14.76 54.88,19.43 3.44,1.31 24.22,10.37 31.24,13.64 6.34,3.12 21.7,11.49 24.39,13.2 7.29,4.65 37.69,27.65 48.92,36.09 2.39,1.86 7.18,6.61 9.82,9.78 3.74,4.49 8.17,8.79 10.88,10.07 2.72,1.22 7.37,0.99 8.37,0.59 z"
     fill="none"
     stroke="#000000"
     stroke-width="3"
     stroke-opacity="1"
     stroke-linejoin="miter"
     id="path848"
     style="stroke-linecap:round;fill:#b04b12;fill-opacity:1;stroke:none" />
</svg>
