{
	"asset":{
		"generator":"Khronos glTF Blender I/O v3.6.27",
		"version":"2.0"
	},
	"scene":0,
	"scenes":[
		{
			"name":"Scene",
			"nodes":[
				0,
				1
			]
		}
	],
	"nodes":[
		{
			"mesh":0,
			"name":"part_letter_c",
			"rotation":[
				0.6272113919258118,
				-0.326505571603775,
				0.3265056014060974,
				0.6272113919258118
			],
			"translation":[
				0,
				0,
				1.1278138117631897e-05
			]
		},
		{
			"mesh":1,
			"name":"part_sun",
			"rotation":[
				0.6272113919258118,
				-0.326505571603775,
				0.3265056014060974,
				0.6272113919258118
			],
			"translation":[
				0,
				0,
				1.1278138117631897e-05
			]
		}
	],
	"materials":[
		{
			"doubleSided":true,
			"name":"SVGMat.006",
			"pbrMetallicRoughness":{
				"baseColorFactor":[
					0.007075419183820486,
					0.25275975465774536,
					0.21854199469089508,
					1
				],
				"metallicFactor":0,
				"roughnessFactor":0.03432837128639221
			}
		},
		{
			"doubleSided":true,
			"name":"SVGMat.007",
			"pbrMetallicRoughness":{
				"baseColorFactor":[
					1,
					0.1618427038192749,
					0.013932585716247559,
					1
				],
				"metallicFactor":0,
				"roughnessFactor":0.041791051626205444
			}
		}
	],
	"meshes":[
		{
			"name":"path846",
			"primitives":[
				{
					"attributes":{
						"POSITION":0,
						"NORMAL":1,
						"TEXCOORD_0":2
					},
					"indices":3,
					"material":0
				}
			]
		},
		{
			"name":"path848",
			"primitives":[
				{
					"attributes":{
						"POSITION":4,
						"NORMAL":5,
						"TEXCOORD_0":6
					},
					"indices":7,
					"material":1
				}
			]
		}
	],
	"accessors":[
		{
			"bufferView":0,
			"componentType":5126,
			"count":4404,
			"max":[
				0.5673331022262573,
				0.0652601569890976,
				0.2911309599876404
			],
			"min":[
				-0.27326324582099915,
				-0.0652601569890976,
				-0.6864593029022217
			],
			"type":"VEC3"
		},
		{
			"bufferView":1,
			"componentType":5126,
			"count":4404,
			"type":"VEC3"
		},
		{
			"bufferView":2,
			"componentType":5126,
			"count":4404,
			"type":"VEC2"
		},
		{
			"bufferView":3,
			"componentType":5123,
			"count":13092,
			"type":"SCALAR"
		},
		{
			"bufferView":4,
			"componentType":5126,
			"count":8046,
			"max":[
				0.5571142435073853,
				0.0652601569890976,
				0.6856228113174438
			],
			"min":[
				-0.8892558217048645,
				-0.0652601569890976,
				-1.1051181554794312
			],
			"type":"VEC3"
		},
		{
			"bufferView":5,
			"componentType":5126,
			"count":8046,
			"type":"VEC3"
		},
		{
			"bufferView":6,
			"componentType":5126,
			"count":8046,
			"type":"VEC2"
		},
		{
			"bufferView":7,
			"componentType":5123,
			"count":23892,
			"type":"SCALAR"
		}
	],
	"bufferViews":[
		{
			"buffer":0,
			"byteLength":52848,
			"byteOffset":0,
			"target":34962
		},
		{
			"buffer":0,
			"byteLength":52848,
			"byteOffset":52848,
			"target":34962
		},
		{
			"buffer":0,
			"byteLength":35232,
			"byteOffset":105696,
			"target":34962
		},
		{
			"buffer":0,
			"byteLength":26184,
			"byteOffset":140928,
			"target":34963
		},
		{
			"buffer":0,
			"byteLength":96552,
			"byteOffset":167112,
			"target":34962
		},
		{
			"buffer":0,
			"byteLength":96552,
			"byteOffset":263664,
			"target":34962
		},
		{
			"buffer":0,
			"byteLength":64368,
			"byteOffset":360216,
			"target":34962
		},
		{
			"buffer":0,
			"byteLength":47784,
			"byteOffset":424584,
			"target":34963
		}
	],
	"buffers":[
		{
			"byteLength":472368,
			"uri":"logo.bin"
		}
	]
}
